<svg width="896" height="194" viewBox="0 0 896 194" fill="none" xmlns="http://www.w3.org/2000/svg">
<path fill-rule="evenodd" clip-rule="evenodd" d="M96.7656 169.34C136.847 169.34 169.34 136.847 169.34 96.7656C169.34 56.684 136.847 24.1914 96.7656 24.1914C56.684 24.1914 24.1914 56.684 24.1914 96.7656C24.1914 136.847 56.684 169.34 96.7656 169.34ZM96.7656 145.148C123.487 145.148 145.148 123.487 145.148 96.7656C145.148 70.0445 123.487 48.3828 96.7656 48.3828C70.0445 48.3828 48.3828 70.0445 48.3828 96.7656C48.3828 123.487 70.0445 145.148 96.7656 145.148Z" fill="#6377EE"/>
<path fill-rule="evenodd" clip-rule="evenodd" d="M181.435 24.1914H241.914C268.635 24.1914 290.297 45.8531 290.297 72.5742C290.297 99.2952 268.635 120.957 241.914 120.957H205.627V169.34H181.435V96.7656H205.627H241.914C255.274 96.7656 266.105 85.9347 266.105 72.5742C266.105 59.2136 255.274 48.3828 241.914 48.3828H181.435V24.1914Z" fill="#6377EE"/>
<path fill-rule="evenodd" clip-rule="evenodd" d="M347.751 24.1914H338.679L296.344 169.34H323.56L356.823 55.2946L390.086 169.34H417.301L374.966 24.1914H365.895H347.751Z" fill="#6377EE"/>
<path fill-rule="evenodd" clip-rule="evenodd" d="M564.368 120.957C554.405 149.145 527.523 169.34 495.923 169.34C455.842 169.34 423.349 136.847 423.349 96.7656C423.349 56.684 455.842 24.1914 495.923 24.1914C527.523 24.1914 554.405 44.3865 564.368 72.5742H537.833C529.468 58.1125 513.832 48.3828 495.923 48.3828C469.202 48.3828 447.541 70.0445 447.541 96.7656C447.541 123.487 469.202 145.148 495.923 145.148C513.832 145.148 529.468 135.419 537.833 120.957H564.368Z" fill="#6377EE"/>
<rect x="592.689" y="24.1914" width="24.1914" height="145.148" fill="#6377EE"/>
<path fill-rule="evenodd" clip-rule="evenodd" d="M737.837 24.1914H641.072V48.3828H737.837V24.1914ZM641.072 78.622H665.263H713.646V102.813H665.263V169.34H641.072V78.622Z" fill="#6377EE"/>
<path fill-rule="evenodd" clip-rule="evenodd" d="M822.507 169.34V120.957L870.89 24.1914H846.699L810.412 96.7656L774.124 24.1914H749.933L798.316 120.957V169.34H822.507Z" fill="#6377EE"/>
</svg>
